<svg aria-hidden="true" xmlns="http://www.w3.org/2000/svg" xmlns:xlink="http://www.w3.org/1999/xlink">

  <symbol width="14" height="14" viewBox="0 0 14 14" fill="none" xmlns="http://www.w3.org/2000/svg" id="update-light">
    <path
      d="M0.373968 6.26C0.742523 2.926 3.56801 0.333252 6.99998 0.333252C8.49098 0.333252 9.69347 0.923221 10.7207 1.68812C11.285 2.10836 11.8234 2.60471 12.3333 3.09576V0.999919C12.3333 0.631728 12.6318 0.333252 13 0.333252C13.3682 0.333252 13.6667 0.631728 13.6667 0.999919V4.66659C13.6667 4.76678 13.6446 4.86182 13.605 4.94708C13.5857 4.98851 13.562 5.02842 13.5338 5.06608C13.5119 5.0953 13.4876 5.12267 13.4613 5.1479C13.4048 5.20217 13.3408 5.2446 13.2727 5.27509C13.1895 5.31246 13.0972 5.33325 13 5.33325H9.33333C8.96514 5.33325 8.66667 5.03478 8.66667 4.66659C8.66667 4.2984 8.96514 3.99992 9.33333 3.99992H11.3495C10.8854 3.55311 10.4247 3.13017 9.92431 2.75752C9.03601 2.09604 8.10801 1.66659 6.99998 1.66659C4.25521 1.66659 1.99393 3.74057 1.69923 6.4065C1.65877 6.77246 1.32931 7.03634 0.963349 6.99588C0.597388 6.95543 0.333513 6.62596 0.373968 6.26Z"
      fill="white" />
    <path
      d="M13.6626 7.73983C13.294 11.0738 10.4685 13.6666 7.03656 13.6666C5.54556 13.6666 4.34307 13.0766 3.31589 12.3117C2.75154 11.8915 2.21313 11.3951 1.70321 10.9041V12.9999C1.70321 13.3681 1.40473 13.6666 1.03654 13.6666C0.66835 13.6666 0.369873 13.3681 0.369873 12.9999V9.33325C0.369873 9.23305 0.391978 9.13802 0.431576 9.05276C0.450794 9.01133 0.474519 8.97142 0.502776 8.93376C0.524684 8.90453 0.548935 8.87717 0.575253 8.85194C0.631779 8.79767 0.695707 8.75523 0.763808 8.72474C0.84706 8.68737 0.939372 8.66658 1.03654 8.66658H4.70321C5.0714 8.66658 5.36987 8.96506 5.36987 9.33325C5.36987 9.70144 5.0714 9.99992 4.70321 9.99992H2.68701C3.15116 10.4467 3.61179 10.8697 4.11223 11.2423C5.00053 11.9038 5.92853 12.3332 7.03656 12.3332C9.78133 12.3332 12.0426 10.2593 12.3373 7.59333C12.3778 7.22737 12.7072 6.9635 13.0732 7.00395C13.4392 7.04441 13.703 7.37387 13.6626 7.73983Z"
      fill="white" />
  </symbol>
  <symbol width="16" height="16" viewBox="0 0 16 16" fill="none" xmlns="http://www.w3.org/2000/svg" id="catalog-light">
    <path
      d="M5.425 0.850098H2.25C1.4 0.850098 0.699997 1.5501 0.699997 2.4001V5.5751C0.699997 6.4251 1.4 7.1251 2.25 7.1251H5.425C6.275 7.1251 6.975 6.4251 6.975 5.5751V2.4251C7 1.5501 6.3 0.850098 5.425 0.850098ZM5.875 5.6001C5.875 5.8501 5.675 6.0501 5.425 6.0501H2.25C2 6.0501 1.8 5.8501 1.8 5.6001V2.4251C1.8 2.1751 2 1.9751 2.25 1.9751H5.425C5.675 1.9751 5.875 2.1751 5.875 2.4251V5.6001Z"
      fill="white" />
    <path
      d="M13.75 0.850098H10.575C9.72499 0.850098 9.02499 1.5501 9.02499 2.4001V5.5751C9.02499 6.4251 9.72499 7.1251 10.575 7.1251H13.75C14.6 7.1251 15.3 6.4251 15.3 5.5751V2.4251C15.3 1.5501 14.6 0.850098 13.75 0.850098ZM14.2 5.6001C14.2 5.8501 14 6.0501 13.75 6.0501H10.575C10.325 6.0501 10.125 5.8501 10.125 5.6001V2.4251C10.125 2.1751 10.325 1.9751 10.575 1.9751H13.75C14 1.9751 14.2 2.1751 14.2 2.4251V5.6001Z"
      fill="white" />
    <path
      d="M5.425 8.8252H2.25C1.4 8.8252 0.699997 9.5252 0.699997 10.3752V13.5502C0.699997 14.4002 1.4 15.1002 2.25 15.1002H5.425C6.275 15.1002 6.975 14.4002 6.975 13.5502V10.4002C7 9.5252 6.3 8.8252 5.425 8.8252ZM5.875 13.5752C5.875 13.8252 5.675 14.0252 5.425 14.0252H2.25C2 14.0252 1.8 13.8252 1.8 13.5752V10.4002C1.8 10.1502 2 9.9502 2.25 9.9502H5.425C5.675 9.9502 5.875 10.1502 5.875 10.4002V13.5752Z"
      fill="white" />
    <path
      d="M13.75 8.8252H10.575C9.72499 8.8252 9.02499 9.5252 9.02499 10.3752V13.5502C9.02499 14.4002 9.72499 15.1002 10.575 15.1002H13.75C14.6 15.1002 15.3 14.4002 15.3 13.5502V10.4002C15.3 9.5252 14.6 8.8252 13.75 8.8252ZM14.2 13.5752C14.2 13.8252 14 14.0252 13.75 14.0252H10.575C10.325 14.0252 10.125 13.8252 10.125 13.5752V10.4002C10.125 10.1502 10.325 9.9502 10.575 9.9502H13.75C14 9.9502 14.2 10.1502 14.2 10.4002V13.5752Z"
      fill="white" />
  </symbol>
  <symbol width="24" height="24" viewBox="0 0 24 24" fill="none" xmlns="http://www.w3.org/2000/svg" id="cart-light">
    <path fill-rule="evenodd" clip-rule="evenodd"
      d="M1 1C0.447715 1 0 1.44772 0 2C0 2.55228 0.447715 3 1 3H3.20647L5.98522 14.9089C6.39883 16.6816 7.95486 17.9464 9.76471 17.9983V18H17.5874C19.5362 18 21.2014 16.5956 21.5301 14.6747L22.7857 7.33734C22.9947 6.11571 22.0537 5 20.8143 5H5.72686L4.97384 1.77277C4.86824 1.32018 4.46475 1 4 1H1ZM6.19353 7L7.9329 14.4545C8.14411 15.3596 8.95109 16 9.88058 16H17.5874C18.5618 16 19.3944 15.2978 19.5588 14.3373L20.8143 7H6.19353Z"
      fill="#D1D0EC" />
    <path
      d="M8 23C9.10457 23 10 22.1046 10 21C10 19.8954 9.10457 19 8 19C6.89543 19 6 19.8954 6 21C6 22.1046 6.89543 23 8 23Z"
      fill="#D1D0EC" />
    <path
      d="M19 23C20.1046 23 21 22.1046 21 21C21 19.8954 20.1046 19 19 19C17.8954 19 17 19.8954 17 21C17 22.1046 17.8954 23 19 23Z"
      fill="#D1D0EC" />
  </symbol>
  <symbol width="8" height="14" viewBox="0 0 8 14" fill="none" xmlns="http://www.w3.org/2000/svg"
    id="light-arrow-thin-down">
    <path
      d="M7.80474 10.1381C8.06509 9.87776 8.06509 9.45565 7.80474 9.1953C7.54439 8.93495 7.12228 8.93495 6.86193 9.1953L4.66666 11.3906L4.66667 1.00004C4.66667 0.631851 4.36819 0.333374 4 0.333374C3.63181 0.333374 3.33333 0.631851 3.33333 1.00004L3.33333 11.3906L1.13807 9.1953C0.877721 8.93495 0.455611 8.93495 0.195262 9.1953C-0.0650876 9.45565 -0.0650877 9.87776 0.195262 10.1381L3.52859 13.4714C3.78894 13.7318 4.21105 13.7318 4.4714 13.4714L7.80474 10.1381Z"
      fill="white" />
  </symbol>
  <symbol width="15" height="8" viewBox="0 0 15 8" fill="none" xmlns="http://www.w3.org/2000/svg"
    id="light-arrow-thin-right">
    <path
      d="M10.6381 0.195262C10.3777 -0.0650874 9.95562 -0.0650874 9.69527 0.195262C9.43492 0.455612 9.43492 0.877722 9.69527 1.13807L11.8905 3.33334L1.50001 3.33333C1.13182 3.33333 0.833344 3.63181 0.833344 4C0.833344 4.36819 1.13182 4.66667 1.50001 4.66667L11.8905 4.66667L9.69527 6.86193C9.43492 7.12228 9.43492 7.54439 9.69527 7.80474C9.95562 8.06509 10.3777 8.06509 10.6381 7.80474L13.9714 4.4714C14.2318 4.21105 14.2318 3.78894 13.9714 3.5286L10.6381 0.195262Z"
      fill="white" />
  </symbol>
  <symbol width="33" height="32" viewBox="0 0 33 32" fill="none" xmlns="http://www.w3.org/2000/svg" id="telegram-light">
    <g clip-path="url(#clip0_1_11390)">
      <path fill-rule="evenodd" clip-rule="evenodd"
        d="M1.37195 4.36808C0.5 6.07937 0.5 8.31958 0.5 12.8V19.2C0.5 23.6804 0.5 25.9206 1.37195 27.6319C2.13893 29.1372 3.36278 30.3611 4.86808 31.1281C6.57937 32 8.81958 32 13.3 32H19.7C24.1804 32 26.4206 32 28.1319 31.1281C29.6372 30.3611 30.8611 29.1372 31.6281 27.6319C32.5 25.9206 32.5 23.6804 32.5 19.2V12.8C32.5 8.31958 32.5 6.07937 31.6281 4.36808C30.8611 2.86278 29.6372 1.63893 28.1319 0.871948C26.4206 0 24.1804 0 19.7 0H13.3C8.81958 0 6.57937 0 4.86808 0.871948C3.36278 1.63893 2.13893 2.86278 1.37195 4.36808ZM18.0891 10.0097C16.1785 10.8044 12.3598 12.4493 6.63322 14.9443C5.70331 15.3141 5.21618 15.6758 5.17184 16.0296C5.09689 16.6274 5.84553 16.8628 6.86499 17.1833C7.00366 17.2269 7.14734 17.2721 7.29464 17.32C8.29763 17.646 9.64682 18.0275 10.3482 18.0426C10.9844 18.0564 11.6945 17.7941 12.4785 17.2557C17.8291 13.644 20.5911 11.8184 20.7645 11.779C20.8868 11.7513 21.0563 11.7164 21.1712 11.8185C21.286 11.9205 21.2747 12.1139 21.2626 12.1658C21.1884 12.4819 18.2497 15.214 16.7289 16.6278C16.2548 17.0686 15.9186 17.3812 15.8498 17.4526C15.6958 17.6126 15.5389 17.7639 15.388 17.9093C14.4562 18.8076 13.7575 19.4812 15.4267 20.5812C16.2289 21.1098 16.8708 21.547 17.5112 21.9831C18.2105 22.4593 18.9081 22.9343 19.8106 23.526C20.0405 23.6767 20.2601 23.8332 20.474 23.9857C21.2879 24.5659 22.0191 25.0872 22.9225 25.0041C23.4474 24.9558 23.9896 24.4622 24.2649 22.9901C24.9157 19.5112 26.1949 11.9733 26.4905 8.86716C26.5164 8.59502 26.4838 8.24673 26.4577 8.09384C26.4315 7.94095 26.3768 7.72312 26.1781 7.56186C25.9427 7.37088 25.5794 7.33061 25.4169 7.33347C24.678 7.34649 23.5445 7.74065 18.0891 10.0097Z"
        fill="#D1D0EC" />
    </g>
    <defs>
      <clipPath id="clip0_1_11390">
        <rect width="32" height="32" fill="white" transform="translate(0.5)" />
      </clipPath>
    </defs>
  </symbol>
  <symbol width="33" height="32" viewBox="0 0 33 32" fill="none" xmlns="http://www.w3.org/2000/svg" id="viber-light">
    <path
      d="M16.5 0C8.76182 0 0.5 1.06226 0.5 13.8239C0.5 20.5758 2.88545 24.7375 7.77273 26.5128V29.7869C7.77542 30.2385 7.9153 30.6785 8.17382 31.0487C8.43233 31.4189 8.79725 31.7017 9.22014 31.8595C9.64304 32.0174 10.1039 32.0429 10.5416 31.9326C10.9794 31.8223 11.3732 31.5815 11.6709 31.2421L14.8564 27.6478H16.5C24.2382 27.6478 32.5 26.5856 32.5 13.8239C32.5 1.06226 24.2382 0 16.5 0ZM16.5 10.186C17.2715 10.186 18.0115 10.4927 18.557 11.0385C19.1026 11.5842 19.4091 12.3245 19.4091 13.0963C19.4091 13.2893 19.3325 13.4744 19.1961 13.6108C19.0597 13.7473 18.8747 13.8239 18.6818 13.8239C18.4889 13.8239 18.3039 13.7473 18.1676 13.6108C18.0312 13.4744 17.9545 13.2893 17.9545 13.0963C17.9545 12.7104 17.8013 12.3403 17.5285 12.0674C17.2557 11.7945 16.8858 11.6412 16.5 11.6412C16.3071 11.6412 16.1221 11.5645 15.9857 11.4281C15.8494 11.2916 15.7727 11.1066 15.7727 10.9136C15.7727 10.7207 15.8494 10.5356 15.9857 10.3991C16.1221 10.2627 16.3071 10.186 16.5 10.186ZM15.7727 8.00332C15.7727 7.81036 15.8494 7.62529 15.9857 7.48885C16.1221 7.3524 16.3071 7.27575 16.5 7.27575C18.0431 7.27575 19.523 7.88899 20.6141 8.98056C21.7052 10.0721 22.3182 11.5526 22.3182 13.0963C22.3182 13.2893 22.2416 13.4744 22.1052 13.6108C21.9688 13.7473 21.7838 13.8239 21.5909 13.8239C21.398 13.8239 21.213 13.7473 21.0767 13.6108C20.9403 13.4744 20.8636 13.2893 20.8636 13.0963C20.8636 11.9386 20.4039 10.8282 19.5856 10.0095C18.7672 9.19083 17.6573 8.7309 16.5 8.7309C16.3071 8.7309 16.1221 8.65424 15.9857 8.51779C15.8494 8.38135 15.7727 8.19629 15.7727 8.00332ZM23.7727 19.6445C23.5992 20.6722 23.0639 21.6038 22.2636 22.271C21.4633 22.9382 20.4508 23.2969 19.4091 23.2824C17.1255 23.2824 12.7327 20.5467 10.9 18.6987C9.06727 16.8506 6.31818 12.4706 6.31818 10.186C6.30363 9.14394 6.66223 8.13101 7.32915 7.33037C7.99608 6.52972 8.92733 5.9942 9.95455 5.8206H11.4091C11.5454 5.82032 11.679 5.85838 11.7948 5.93042C11.9105 6.00246 12.0037 6.10559 12.0636 6.22804C12.0636 6.22804 12.9364 8.00332 13.5182 9.13834C14.1 10.2734 12.9509 11.8886 12.2527 12.587C12.669 13.6703 13.297 14.6597 14.1 15.4973C14.9373 16.3007 15.9263 16.9289 17.0091 17.3454C17.6939 16.5575 18.6382 16.0412 19.6709 15.8902C19.9393 15.8905 20.2037 15.9554 20.4418 16.0794L23.3509 17.5345C23.4733 17.5945 23.5764 17.6878 23.6484 17.8035C23.7204 17.9193 23.7585 18.053 23.7582 18.1894L23.7727 19.6445ZM24.5 13.8239C24.3071 13.8239 24.1221 13.7473 23.9857 13.6108C23.8494 13.4744 23.7727 13.2893 23.7727 13.0963C23.7727 11.1667 23.0065 9.31608 21.6426 7.95161C20.2787 6.58715 18.4288 5.8206 16.5 5.8206C16.3071 5.8206 16.1221 5.74394 15.9857 5.60749C15.8494 5.47105 15.7727 5.28599 15.7727 5.09302C15.7727 4.90006 15.8494 4.715 15.9857 4.57855C16.1221 4.4421 16.3071 4.36545 16.5 4.36545C18.8146 4.36545 21.0344 5.28531 22.6711 6.92267C24.3078 8.56003 25.2273 10.7808 25.2273 13.0963C25.2273 13.2893 25.1507 13.4744 25.0143 13.6108C24.8779 13.7473 24.6929 13.8239 24.5 13.8239Z"
      fill="#D1D0EC" />
  </symbol>
  <symbol width="33" height="32" viewBox="0 0 33 32" fill="none" xmlns="http://www.w3.org/2000/svg" id="whatsapp-light">
    <g clip-path="url(#clip0_1_11399)">
      <path fill-rule="evenodd" clip-rule="evenodd"
        d="M16.8428 25.2044H16.8466C22.0722 25.2044 26.3252 20.9527 26.3274 15.7266C26.3283 13.1942 25.3431 10.8129 23.5531 9.02144C21.7631 7.23 19.3827 6.24281 16.8504 6.24181C11.6208 6.24181 7.3677 10.4933 7.36564 15.719C7.36495 17.5098 7.86614 19.2539 8.81514 20.763L9.04064 21.1215L8.08283 24.6189L11.6711 23.6779L12.0173 23.8834C13.473 24.7469 15.1415 25.2038 16.8428 25.2044ZM20.0995 17.1791C20.3608 17.2742 21.762 17.9635 22.047 18.1061C22.1026 18.1339 22.1545 18.159 22.2027 18.1823C22.4016 18.2784 22.536 18.3432 22.5933 18.4389C22.6645 18.5578 22.6645 19.1282 22.4271 19.7938C22.1895 20.4593 21.0508 21.0668 20.5033 21.1486C20.0122 21.222 19.3908 21.2526 18.7081 21.0357C18.2941 20.9044 17.7633 20.7291 17.0833 20.4356C14.412 19.2825 12.6066 16.6945 12.2646 16.2044C12.2406 16.1699 12.2238 16.1458 12.2144 16.1333L12.2119 16.13C12.0606 15.9281 11.0506 14.5805 11.0506 13.1859C11.0506 11.8733 11.6956 11.1854 11.9924 10.8688C12.0127 10.8471 12.0314 10.8272 12.0481 10.8089C12.3095 10.5237 12.6181 10.4524 12.8082 10.4524C12.9982 10.4524 13.1884 10.4541 13.3545 10.4624C13.3749 10.4634 13.3962 10.4633 13.4182 10.4631C13.5843 10.4622 13.7915 10.4609 13.9957 10.9515C14.0742 11.14 14.1889 11.4193 14.31 11.714C14.5554 12.3112 14.8267 12.9715 14.8745 13.067C14.9457 13.2096 14.9932 13.3761 14.8982 13.5662C14.884 13.5946 14.8709 13.6214 14.8583 13.6471C14.7869 13.7929 14.7344 13.9001 14.6132 14.0416C14.5657 14.097 14.5166 14.1568 14.4675 14.2166C14.3693 14.3361 14.2712 14.4557 14.1857 14.5407C14.043 14.6828 13.8945 14.8369 14.0607 15.1222C14.227 15.4074 14.799 16.3406 15.6463 17.096C16.5572 17.9083 17.3489 18.2516 17.7501 18.4255C17.8284 18.4594 17.8917 18.4869 17.9383 18.5102C18.2233 18.6529 18.3895 18.6291 18.5558 18.4389C18.722 18.2488 19.2682 17.607 19.4583 17.3218C19.6483 17.0365 19.8382 17.0841 20.0995 17.1791Z"
        fill="#D1D0EC" />
      <path fill-rule="evenodd" clip-rule="evenodd"
        d="M1.37195 4.36808C0.5 6.07937 0.5 8.31958 0.5 12.8V19.2C0.5 23.6804 0.5 25.9206 1.37195 27.6319C2.13893 29.1372 3.36278 30.3611 4.86808 31.1281C6.57937 32 8.81958 32 13.3 32H19.7C24.1804 32 26.4206 32 28.1319 31.1281C29.6372 30.3611 30.8611 29.1372 31.6281 27.6319C32.5 25.9206 32.5 23.6804 32.5 19.2V12.8C32.5 8.31958 32.5 6.07937 31.6281 4.36808C30.8611 2.86278 29.6372 1.63893 28.1319 0.871948C26.4206 0 24.1804 0 19.7 0H13.3C8.81958 0 6.57937 0 4.86808 0.871948C3.36278 1.63893 2.13893 2.86278 1.37195 4.36808ZM16.8465 4.31594C19.8979 4.31719 22.7619 5.50475 24.9155 7.66013C27.0691 9.8155 28.2545 12.6804 28.2533 15.7274C28.2507 22.0146 23.1333 27.1304 16.8466 27.1304H16.842C14.9328 27.1296 13.057 26.6509 11.391 25.7424L5.34408 27.3281L6.96233 21.419C5.96414 19.6899 5.43895 17.728 5.43976 15.7183C5.44226 9.431 10.5593 4.31594 16.8465 4.31594Z"
        fill="#D1D0EC" />
    </g>
    <defs>
      <clipPath id="clip0_1_11399">
        <rect width="32" height="32" fill="white" transform="translate(0.5)" />
      </clipPath>
    </defs>
  </symbol>
  <symbol width="33" height="32" viewBox="0 0 33 32" fill="none" xmlns="http://www.w3.org/2000/svg" id="times-circle">
    <g clip-path="url(#clip0_1_10370)">
      <path
        d="M21.1154 10.7863L17.3518 14.5499L13.6352 10.8334C13.0707 10.2688 12.1297 10.2688 11.5182 10.8804C10.9536 11.445 10.9536 12.3859 11.5652 12.9974L15.2818 16.714L11.5652 20.4306C11.0007 20.9952 11.0007 21.9361 11.6122 22.5477C12.1768 23.1122 13.1177 23.1122 13.7293 22.5006L17.4459 18.784L21.1625 22.5006C21.727 23.0652 22.6679 23.0652 23.2795 22.4536C23.8441 21.889 23.8441 20.9481 23.2325 20.3365L19.5159 16.6199L23.2325 12.9034C23.797 12.3388 23.797 11.3979 23.1854 10.7863C22.6209 10.2218 21.68 10.2218 21.1154 10.7863Z"
        fill="#D1D0EC" />
    </g>
    <rect x="1.23157" y="0.5" width="31" height="31" rx="15.5" stroke="#D1D0EC" />
    <defs>
      <clipPath id="clip0_1_10370">
        <rect x="0.731567" width="32" height="32" rx="16" fill="white" />
      </clipPath>
    </defs>
  </symbol>



</svg>