<svg width="56" height="32" viewBox="0 0 56 32" fill="none" xmlns="http://www.w3.org/2000/svg">
<rect width="56" height="32" rx="6" fill="black"/>
<rect x="0.5" y="0.5" width="55" height="31" rx="5.5" stroke="black" stroke-opacity="0.14"/>
<path fill-rule="evenodd" clip-rule="evenodd" d="M26.4481 20.8834V16.0499H28.9428C29.965 16.0499 30.8278 15.7074 31.5312 15.0318L31.7 14.8606C32.9849 13.4619 32.9005 11.283 31.5312 9.98898C30.8466 9.30392 29.9087 8.93284 28.9428 8.95187H24.9382V20.8834H26.4481ZM26.4481 14.5846V10.4171H28.9807C29.5248 10.4171 30.0406 10.6264 30.4252 11.007C31.2413 11.8062 31.26 13.1383 30.4721 13.9661C30.0875 14.3752 29.5435 14.6036 28.9807 14.5846H26.4481Z" fill="white"/>
<path fill-rule="evenodd" clip-rule="evenodd" d="M38.7434 13.3572C38.0963 12.7577 37.2147 12.4533 36.0987 12.4533C34.6638 12.4533 33.5853 12.9861 32.8725 14.0422L34.2042 14.8891C34.6919 14.1659 35.3578 13.8044 36.2018 13.8044C36.7364 13.8044 37.2522 14.0042 37.6555 14.3657C38.0494 14.7083 38.2745 15.203 38.2745 15.7264V16.0784C37.693 15.7549 36.9615 15.5836 36.0612 15.5836C35.0108 15.5836 34.1667 15.831 33.5384 16.3353C32.91 16.8396 32.5912 17.5056 32.5912 18.3524C32.5724 19.1231 32.9006 19.8558 33.4821 20.3505C34.0729 20.8834 34.8232 21.1498 35.7048 21.1498C36.7458 21.1498 37.5711 20.6836 38.1995 19.7511H38.2651V20.8834H39.7094V15.85C39.7094 14.7939 39.3905 13.9566 38.7434 13.3572ZM34.6453 19.3801C34.3358 19.1517 34.1482 18.7806 34.1482 18.381C34.1482 17.9338 34.3546 17.5627 34.7579 17.2678C35.1706 16.9728 35.6865 16.8206 36.2962 16.8206C37.1404 16.8111 37.797 17.0014 38.266 17.382C38.266 18.029 38.0127 18.5903 37.5156 19.0661C37.0654 19.5228 36.4557 19.7797 35.8178 19.7797C35.3957 19.7892 34.983 19.6465 34.6453 19.3801Z" fill="white"/>
<path d="M42.9544 24.4704L48 12.7197H46.3588L44.0236 18.5808H43.9954L41.6039 12.7197H39.9627L43.2733 20.36L41.3976 24.4704H42.9544Z" fill="white"/>
<path d="M21.2352 15.0033C21.2352 14.5371 21.1977 14.0708 21.1226 13.6141H14.7547V16.2497H18.4029C18.2528 17.0965 17.7651 17.8577 17.0524 18.3335V20.0461H19.2282C20.5037 18.8568 21.2352 17.0965 21.2352 15.0033Z" fill="#4285F4"/>
<path d="M14.7549 21.7017C16.5744 21.7017 18.1122 21.0928 19.2282 20.0461L17.0524 18.3335C16.4428 18.7521 15.6646 18.99 14.7549 18.99C12.9918 18.99 11.5006 17.7816 10.9661 16.1641H8.72461V17.9339C9.86877 20.246 12.204 21.7017 14.7549 21.7017Z" fill="#34A853"/>
<path d="M10.9661 16.1641C10.6847 15.3173 10.685 14.3944 10.9664 13.538V11.7778H8.7246C7.75847 13.7093 7.75847 15.9928 8.7246 17.9243L10.9661 16.1641Z" fill="#FBBC04"/>
<path d="M14.7549 10.7121C15.7209 10.6931 16.6494 11.0642 17.3434 11.7397L19.2753 9.77968C18.0468 8.61888 16.4337 7.98138 14.7549 8.00041C12.204 8.00041 9.86877 9.46569 8.7246 11.7778L10.9661 13.5475C11.5006 11.9205 12.9918 10.7121 14.7549 10.7121Z" fill="#EA4335"/>
</svg>
