<svg width="16" height="16" viewBox="0 0 16 16" fill="none" xmlns="http://www.w3.org/2000/svg">
<path d="M5.425 0.850098H2.25C1.4 0.850098 0.699997 1.5501 0.699997 2.4001V5.5751C0.699997 6.4251 1.4 7.1251 2.25 7.1251H5.425C6.275 7.1251 6.975 6.4251 6.975 5.5751V2.4251C7 1.5501 6.3 0.850098 5.425 0.850098ZM5.875 5.6001C5.875 5.8501 5.675 6.0501 5.425 6.0501H2.25C2 6.0501 1.8 5.8501 1.8 5.6001V2.4251C1.8 2.1751 2 1.9751 2.25 1.9751H5.425C5.675 1.9751 5.875 2.1751 5.875 2.4251V5.6001Z" fill="white"/>
<path d="M13.75 0.850098H10.575C9.72499 0.850098 9.02499 1.5501 9.02499 2.4001V5.5751C9.02499 6.4251 9.72499 7.1251 10.575 7.1251H13.75C14.6 7.1251 15.3 6.4251 15.3 5.5751V2.4251C15.3 1.5501 14.6 0.850098 13.75 0.850098ZM14.2 5.6001C14.2 5.8501 14 6.0501 13.75 6.0501H10.575C10.325 6.0501 10.125 5.8501 10.125 5.6001V2.4251C10.125 2.1751 10.325 1.9751 10.575 1.9751H13.75C14 1.9751 14.2 2.1751 14.2 2.4251V5.6001Z" fill="white"/>
<path d="M5.425 8.8252H2.25C1.4 8.8252 0.699997 9.5252 0.699997 10.3752V13.5502C0.699997 14.4002 1.4 15.1002 2.25 15.1002H5.425C6.275 15.1002 6.975 14.4002 6.975 13.5502V10.4002C7 9.5252 6.3 8.8252 5.425 8.8252ZM5.875 13.5752C5.875 13.8252 5.675 14.0252 5.425 14.0252H2.25C2 14.0252 1.8 13.8252 1.8 13.5752V10.4002C1.8 10.1502 2 9.9502 2.25 9.9502H5.425C5.675 9.9502 5.875 10.1502 5.875 10.4002V13.5752Z" fill="white"/>
<path d="M13.75 8.8252H10.575C9.72499 8.8252 9.02499 9.5252 9.02499 10.3752V13.5502C9.02499 14.4002 9.72499 15.1002 10.575 15.1002H13.75C14.6 15.1002 15.3 14.4002 15.3 13.5502V10.4002C15.3 9.5252 14.6 8.8252 13.75 8.8252ZM14.2 13.5752C14.2 13.8252 14 14.0252 13.75 14.0252H10.575C10.325 14.0252 10.125 13.8252 10.125 13.5752V10.4002C10.125 10.1502 10.325 9.9502 10.575 9.9502H13.75C14 9.9502 14.2 10.1502 14.2 10.4002V13.5752Z" fill="white"/>
</svg>
