<svg width="18" height="20" viewBox="0 0 18 20" fill="none" xmlns="http://www.w3.org/2000/svg">
<path d="M17.475 8.1626L9.59997 0.400098C9.26247 0.0625976 8.73748 0.0625976 8.39998 0.400098L0.524976 8.1626C0.187476 8.5001 0.187476 9.0251 0.524976 9.3626C0.862476 9.7001 1.38748 9.7001 1.72498 9.3626L8.13748 3.0626V19.0001C8.13748 19.4501 8.51248 19.8251 8.96248 19.8251C9.41248 19.8251 9.82498 19.4501 9.82498 19.0001V2.9876L16.3125 9.3626C16.4625 9.5126 16.6875 9.5876 16.9125 9.5876C17.1375 9.5876 17.3625 9.5126 17.5125 9.3251C17.8125 9.0251 17.8125 8.4626 17.475 8.1626Z" fill="#D1D0EC"/>
</svg>
