<svg width="20" height="23" viewBox="0 0 20 23" fill="none" xmlns="http://www.w3.org/2000/svg">
<path d="M11.9267 22.2749C14.8317 19.7521 20 14.5978 20 9.86781C20 7.2507 18.9464 4.74079 17.0711 2.89021C15.1957 1.03964 12.6522 0 10 0C7.34783 0 4.8043 1.03964 2.92893 2.89021C1.05357 4.74079 3.95203e-08 7.2507 0 9.86781C0 14.5978 5.16667 19.7521 8.07333 22.2749C8.60352 22.7419 9.28933 23 10 23C10.7107 23 11.3965 22.7419 11.9267 22.2749ZM6.66667 9.86781C6.66667 8.99544 7.01786 8.1588 7.64298 7.54194C8.2681 6.92508 9.11594 6.57854 10 6.57854C10.8841 6.57854 11.7319 6.92508 12.357 7.54194C12.9821 8.1588 13.3333 8.99544 13.3333 9.86781C13.3333 10.7402 12.9821 11.5768 12.357 12.1937C11.7319 12.8105 10.8841 13.1571 10 13.1571C9.11594 13.1571 8.2681 12.8105 7.64298 12.1937C7.01786 11.5768 6.66667 10.7402 6.66667 9.86781Z" fill="#D1D0EC"/>
</svg>
