<svg width="146" height="48" viewBox="0 0 146 48" fill="none" xmlns="http://www.w3.org/2000/svg">
<mask id="mask0_1_11198" style="mask-type:luminance" maskUnits="userSpaceOnUse" x="0" y="0" width="47" height="48">
<path d="M17.7821 39.2253L28.452 30.6003L27.3991 27.5253L21.9939 31.8753L21.5727 32.2503L21.0814 32.6253L20.8708 31.9503L20.6602 31.4253L19.1158 26.5503L19.0456 26.2503L18.9053 25.8753L19.186 25.6503L19.3966 25.5003L25.2932 20.7753L24.3806 17.8503L18.9755 22.2003L18.5543 22.5003L17.9927 22.9503L17.7821 22.2753L17.6417 21.7503L16.2378 17.2503L16.1676 16.9503L16.0272 16.5753L16.308 16.3503L16.5186 16.2003L22.4853 11.4003L21.7131 7.50029L10.6221 16.5003L17.7821 39.2253ZM28.7328 8.62529L18.0629 17.2503L18.9053 19.8753L24.3104 15.5253L24.7316 15.1503L25.2932 14.7003L25.5037 15.3753L25.7143 15.9003L27.2587 20.7003L27.3289 21.0003L27.4692 21.3753L27.1885 21.6003L26.9779 21.7503L21.0814 26.4753L21.9939 29.4753L27.3991 25.1253L27.8202 24.7503L28.3818 24.3003L28.5924 24.9753L28.803 25.5003L30.3473 30.5253L30.4175 30.8253L30.5579 31.2003L30.2069 31.5003L29.9963 31.6503L24.0296 36.4503L24.8018 40.3503L35.8928 31.3503L28.7328 8.62529ZM23.2574 0.675293C29.8559 0.675293 35.2611 2.92529 39.5431 7.35029C43.8251 11.7753 46.0012 17.3253 46.0012 23.9253C46.0012 30.5253 43.8251 36.0003 39.5431 40.5003C35.2611 44.9253 29.7857 47.1753 23.2574 47.1753C16.659 47.1753 11.2538 44.9253 6.97183 40.5003C2.68983 36.0753 0.513733 30.5253 0.513733 23.9253C0.513733 17.3253 2.68983 11.8503 6.97183 7.35029C11.2538 2.92529 16.659 0.675293 23.2574 0.675293Z" fill="white"/>
</mask>
<g mask="url(#mask0_1_11198)">
<path d="M65.3753 34.5L33.5762 -21L-18.9309 13.35L12.8682 68.85L65.3753 34.5Z" fill="url(#paint0_linear_1_11198)"/>
</g>
<mask id="mask1_1_11198" style="mask-type:luminance" maskUnits="userSpaceOnUse" x="55" y="15" width="11" height="20">
<path d="M65.7369 15.9746L65.3701 18.5996H58.6937V23.6996H64.4897V26.3246H58.6937V31.6496H65.8103V34.3496H55.3188V15.9746H65.7369Z" fill="white"/>
</mask>
<g mask="url(#mask1_1_11198)">
<path d="M73.1472 19.8743L57.5201 11.5493L47.9091 30.3743L63.5362 38.6993L73.1472 19.8743Z" fill="url(#paint1_linear_1_11198)"/>
</g>
<mask id="mask2_1_11198" style="mask-type:luminance" maskUnits="userSpaceOnUse" x="67" y="19" width="12" height="16">
<path d="M73.1469 19.875C74.981 19.875 76.5951 20.4 78.0624 21.525L76.7419 23.55C75.568 22.8 74.3941 22.425 73.2936 22.425C72.6333 22.425 72.1197 22.575 71.7529 22.8C71.3861 23.025 71.2393 23.4 71.2393 23.85C71.2393 24.15 71.3127 24.45 71.4594 24.675C71.6062 24.9 71.8996 25.05 72.3398 25.275C72.78 25.425 73.367 25.65 74.174 25.875C75.6414 26.25 76.7419 26.85 77.4755 27.525C78.2092 28.2 78.576 29.1 78.576 30.375C78.576 31.8 77.9891 32.85 76.8886 33.675C75.7881 34.5 74.3941 34.875 72.78 34.875C71.6795 34.875 70.6524 34.725 69.6986 34.35C68.7449 33.975 67.9378 33.525 67.2775 32.925L68.965 31.05C70.1388 31.95 71.3861 32.4 72.7067 32.4C73.4403 32.4 74.0273 32.25 74.4675 31.95C74.9077 31.65 75.1278 31.2 75.1278 30.675C75.1278 30.3 75.0544 29.925 74.9077 29.7C74.761 29.475 74.4675 29.25 74.0273 29.1C73.5871 28.95 72.9268 28.725 72.0464 28.425C70.6524 28.05 69.6253 27.525 68.965 26.775C68.3047 26.1 68.0112 25.2 68.0112 24.15C68.0112 23.4 68.2313 22.65 68.6715 22.05C69.1117 21.45 69.772 20.925 70.5057 20.625C71.2393 20.025 72.1197 19.875 73.1469 19.875Z" fill="white"/>
</mask>
<g mask="url(#mask2_1_11198)">
<path d="M84.4454 23.0249L69.6253 15.1499L61.2615 31.5749L76.0816 39.4499L84.4454 23.0249Z" fill="url(#paint2_linear_1_11198)"/>
</g>
<mask id="mask3_1_11198" style="mask-type:luminance" maskUnits="userSpaceOnUse" x="81" y="19" width="19" height="16">
<path d="M95.7436 19.8753C96.8441 19.8753 97.7245 20.2503 98.3848 21.0003C99.0451 21.7503 99.3385 22.8003 99.3385 24.1503V34.3503H96.1104V24.6753C96.1104 23.1753 95.5968 22.4253 94.5697 22.4253C94.0561 22.4253 93.5425 22.5753 93.1757 22.9503C92.8089 23.3253 92.3687 23.8503 92.0018 24.5253V34.2753H88.7003V24.6753C88.7003 23.1753 88.1868 22.4253 87.1596 22.4253C86.5727 22.4253 86.1325 22.5753 85.7657 22.9503C85.3988 23.3253 84.9586 23.8503 84.5918 24.5253V34.2753H81.2903V20.2503H84.1516L84.4451 22.0503C85.4722 20.5503 86.7928 19.8003 88.4069 19.8003C89.2139 19.8003 89.8742 20.0253 90.4611 20.4003C91.0481 20.8503 91.4883 21.3753 91.7084 22.1253C92.2953 21.3753 92.8822 20.7753 93.5425 20.4003C94.1295 20.1003 94.8631 19.8753 95.7436 19.8753Z" fill="white"/>
</mask>
<g mask="url(#mask3_1_11198)">
<path d="M105.208 22.9506L85.1054 12.2256L75.421 31.2006L95.5235 41.9256L105.208 22.9506Z" fill="url(#paint3_linear_1_11198)"/>
</g>
<mask id="mask4_1_11198" style="mask-type:luminance" maskUnits="userSpaceOnUse" x="102" y="13" width="6" height="22">
<path d="M104.915 13.125C105.502 13.125 106.015 13.35 106.455 13.725C106.822 14.1 107.042 14.625 107.042 15.225C107.042 15.825 106.822 16.275 106.455 16.65C106.089 17.025 105.575 17.25 104.915 17.25C104.328 17.25 103.814 17.025 103.447 16.65C103.081 16.275 102.86 15.75 102.86 15.225C102.86 14.625 103.081 14.175 103.447 13.725C103.814 13.35 104.328 13.125 104.915 13.125ZM106.602 20.25V34.275H103.301V20.25H106.602Z" fill="white"/>
</mask>
<g mask="url(#mask4_1_11198)">
<path d="M115.48 17.7004L103.741 11.4004L94.3502 29.7754L106.089 36.0754L115.48 17.7004Z" fill="url(#paint4_linear_1_11198)"/>
</g>
<mask id="mask5_1_11198" style="mask-type:luminance" maskUnits="userSpaceOnUse" x="110" y="14" width="7" height="21">
<path d="M113.865 34.7253C112.838 34.7253 111.958 34.4253 111.371 33.7503C110.784 33.1503 110.49 32.2503 110.49 31.0503V14.5503L113.792 14.1753V30.9003C113.792 31.5753 114.085 31.8753 114.599 31.8753C114.892 31.8753 115.112 31.8003 115.406 31.7253L116.139 34.1253C115.332 34.5753 114.599 34.7253 113.865 34.7253Z" fill="white"/>
</mask>
<g mask="url(#mask5_1_11198)">
<path d="M124.283 18.6003L111.664 11.9253L102.273 30.3753L114.892 37.0503L124.283 18.6003Z" fill="url(#paint5_linear_1_11198)"/>
</g>
<mask id="mask6_1_11198" style="mask-type:luminance" maskUnits="userSpaceOnUse" x="117" y="19" width="14" height="16">
<path d="M123.77 22.425C121.789 22.425 120.762 24 120.762 27.225C120.762 28.875 120.982 30.15 121.496 30.9C122.009 31.725 122.743 32.1 123.697 32.1C124.651 32.1 125.458 31.725 125.898 30.9C126.411 30.075 126.631 28.875 126.631 27.225C126.631 25.575 126.411 24.375 125.898 23.55C125.458 22.875 124.724 22.425 123.77 22.425ZM123.77 19.875C125.824 19.875 127.365 20.55 128.539 21.825C129.639 23.175 130.226 24.975 130.226 27.225C130.226 28.725 129.933 30 129.419 31.125C128.906 32.25 128.172 33.15 127.218 33.75C126.265 34.35 125.091 34.65 123.77 34.65C121.716 34.65 120.175 33.975 119.001 32.7C117.827 31.35 117.314 29.55 117.314 27.225C117.314 25.725 117.607 24.45 118.121 23.325C118.634 22.2 119.368 21.375 120.395 20.7C121.276 20.175 122.376 19.875 123.77 19.875Z" fill="white"/>
</mask>
<g mask="url(#mask6_1_11198)">
<path d="M136.169 23.0251L120.028 14.4751L111.298 31.5751L127.438 40.1251L136.169 23.0251Z" fill="url(#paint6_linear_1_11198)"/>
</g>
<mask id="mask7_1_11198" style="mask-type:luminance" maskUnits="userSpaceOnUse" x="133" y="19" width="12" height="16">
<path d="M140.644 19.875C141.891 19.875 142.845 20.25 143.505 21C144.166 21.75 144.532 22.8 144.532 24.15V34.35H141.231V24.675C141.231 23.85 141.084 23.25 140.791 22.95C140.497 22.65 140.057 22.425 139.544 22.425C138.957 22.425 138.443 22.575 138.003 22.95C137.563 23.325 137.122 23.85 136.682 24.525V34.275H133.381V20.25H136.242L136.536 22.05C137.563 20.625 138.957 19.875 140.644 19.875Z" fill="white"/>
</mask>
<g mask="url(#mask7_1_11198)">
<path d="M150.328 22.9499L135.728 15.1499L127.511 31.1999L142.111 38.9999L150.328 22.9499Z" fill="url(#paint7_linear_1_11198)"/>
</g>
<defs>
<linearGradient id="paint0_linear_1_11198" x1="53.1855" y1="37.591" x2="-6.04478" y2="8.42355" gradientUnits="userSpaceOnUse">
<stop stop-color="#98B9E0"/>
<stop offset="1" stop-color="white"/>
</linearGradient>
<linearGradient id="paint1_linear_1_11198" x1="69.4981" y1="29.2538" x2="51.7025" y2="20.5719" gradientUnits="userSpaceOnUse">
<stop stop-color="#98B9E0"/>
<stop offset="1" stop-color="white"/>
</linearGradient>
<linearGradient id="paint2_linear_1_11198" x1="81.0932" y1="30.9959" x2="64.9122" y2="22.8937" gradientUnits="userSpaceOnUse">
<stop stop-color="#98B9E0"/>
<stop offset="1" stop-color="white"/>
</linearGradient>
<linearGradient id="paint3_linear_1_11198" x1="100.901" y1="31.5929" x2="80.5401" y2="20.8757" gradientUnits="userSpaceOnUse">
<stop stop-color="#98B9E0"/>
<stop offset="1" stop-color="white"/>
</linearGradient>
<linearGradient id="paint4_linear_1_11198" x1="112.425" y1="27.4909" x2="97.0794" y2="20.5945" gradientUnits="userSpaceOnUse">
<stop stop-color="#98B9E0"/>
<stop offset="1" stop-color="white"/>
</linearGradient>
<linearGradient id="paint5_linear_1_11198" x1="121.101" y1="28.3093" x2="105.24" y2="21.0172" gradientUnits="userSpaceOnUse">
<stop stop-color="#98B9E0"/>
<stop offset="1" stop-color="white"/>
</linearGradient>
<linearGradient id="paint6_linear_1_11198" x1="132.573" y1="31.2014" x2="115.328" y2="22.4255" gradientUnits="userSpaceOnUse">
<stop stop-color="#98B9E0"/>
<stop offset="1" stop-color="white"/>
</linearGradient>
<linearGradient id="paint7_linear_1_11198" x1="147.029" y1="30.7024" x2="131.122" y2="22.7154" gradientUnits="userSpaceOnUse">
<stop stop-color="#98B9E0"/>
<stop offset="1" stop-color="white"/>
</linearGradient>
</defs>
</svg>
