<svg width="22" height="22" viewBox="0 0 22 22" fill="none" xmlns="http://www.w3.org/2000/svg">
<path fill-rule="evenodd" clip-rule="evenodd" d="M3 2C2.44772 2 2 2.44772 2 3V14C2 14.5523 2.44772 15 3 15H6C6.55228 15 7 15.4477 7 16V18.865L11.3598 15.2318C11.5395 15.082 11.7661 15 12 15H19C19.5523 15 20 14.5523 20 14V3C20 2.44772 19.5523 2 19 2H3ZM0 3C0 1.34315 1.34315 0 3 0H19C20.6569 0 22 1.34315 22 3V14C22 15.6569 20.6569 17 19 17H12.362L6.64018 21.7682C6.3421 22.0166 5.92723 22.0702 5.57584 21.9056C5.22446 21.741 5 21.388 5 21V17H3C1.34315 17 0 15.6569 0 14V3Z" fill="#D1D0EC"/>
</svg>
