<svg width="32" height="32" viewBox="0 0 32 32" fill="none" xmlns="http://www.w3.org/2000/svg">
<rect width="32" height="32" rx="7" fill="url(#paint0_linear_1_10924)"/>
<g clip-path="url(#clip0_1_10924)">
<path fill-rule="evenodd" clip-rule="evenodd" d="M8.5 8.625C8.01675 8.625 7.625 9.01675 7.625 9.5V19.125C7.625 19.6082 8.01675 20 8.5 20H11.125C11.6082 20 12 20.3918 12 20.875V23.3818L15.8148 20.2028C15.9721 20.0718 16.1703 20 16.375 20H22.5C22.9833 20 23.375 19.6082 23.375 19.125V9.5C23.375 9.01675 22.9832 8.625 22.5 8.625H8.5ZM5.875 9.5C5.875 8.05025 7.05025 6.875 8.5 6.875H22.5C23.9497 6.875 25.125 8.05025 25.125 9.5V19.125C25.125 20.5747 23.9497 21.75 22.5 21.75H16.6918L11.6852 25.9222C11.4243 26.1395 11.0613 26.1864 10.7539 26.0424C10.4464 25.8984 10.25 25.5895 10.25 25.25V21.75H8.5C7.05025 21.75 5.875 20.5747 5.875 19.125V9.5Z" fill="#3D3D3D"/>
</g>
<defs>
<linearGradient id="paint0_linear_1_10924" x1="27.3731" y1="20.8671" x2="5.47182" y2="9.3728" gradientUnits="userSpaceOnUse">
<stop stop-color="#9BCCEB"/>
<stop offset="1" stop-color="#FDC5FD"/>
</linearGradient>
<clipPath id="clip0_1_10924">
<rect width="21" height="21" fill="white" transform="translate(5 6)"/>
</clipPath>
</defs>
</svg>
