<svg width="32" height="32" viewBox="0 0 32 32" fill="none" xmlns="http://www.w3.org/2000/svg">
<rect width="32" height="32" rx="7" fill="url(#paint0_linear_1_10920)"/>
<path d="M5 15.6704C5 9.53903 9.80288 5 16 5C22.1971 5 27 9.53903 27 15.6704C27 21.8017 22.1971 26.3407 16 26.3407C14.8862 26.3407 13.8193 26.1936 12.8155 25.9186C12.6209 25.8646 12.4135 25.8791 12.2284 25.9599L10.0449 26.9251C9.913 26.9833 9.76886 27.0082 9.62511 26.9976C9.48137 26.987 9.34242 26.9413 9.22049 26.8645C9.09855 26.7876 8.99736 26.682 8.92581 26.5568C8.85426 26.4317 8.81453 26.2909 8.81012 26.1469L8.74962 24.1902C8.74537 24.0711 8.71697 23.9541 8.66615 23.8463C8.61533 23.7385 8.54316 23.6422 8.454 23.5632C6.3145 21.6491 5 18.877 5 15.6704ZM12.6258 13.6642L9.3945 18.7904C9.08513 19.2826 9.68875 19.8368 10.1521 19.4861L13.624 16.8515C13.7382 16.7648 13.8775 16.7176 14.0209 16.7171C14.1643 16.7166 14.304 16.7628 14.4187 16.8488L16.9886 18.7766C17.171 18.9133 17.3797 19.0108 17.6015 19.0629C17.8234 19.115 18.0537 19.1205 18.2778 19.0792C18.502 19.0378 18.7151 18.9505 18.9038 18.8227C19.0925 18.6949 19.2527 18.5294 19.3743 18.3366L22.6055 13.2104C22.9162 12.7181 22.3113 12.164 21.8479 12.5146L18.376 15.1492C18.2618 15.236 18.1225 15.2831 17.9791 15.2836C17.8357 15.2841 17.696 15.2379 17.5812 15.152L15.0114 13.2228C14.829 13.086 14.6203 12.9886 14.3985 12.9365C14.1766 12.8844 13.9463 12.8789 13.7222 12.9202C13.498 12.9615 13.2849 13.0489 13.0962 13.1767C12.9075 13.3045 12.7473 13.4714 12.6258 13.6642Z" fill="#3D3D3D"/>
<defs>
<linearGradient id="paint0_linear_1_10920" x1="27.3731" y1="20.8671" x2="5.47182" y2="9.3728" gradientUnits="userSpaceOnUse">
<stop stop-color="#9BCCEB"/>
<stop offset="1" stop-color="#FDC5FD"/>
</linearGradient>
</defs>
</svg>
