<svg width="20" height="20" viewBox="0 0 20 20" fill="none" xmlns="http://www.w3.org/2000/svg">
<path fill-rule="evenodd" clip-rule="evenodd" d="M0.0117945 3.6023C-0.167002 1.50023 1.61562 0 3.51149 0H5.88582C7.01903 0 8.04095 0.681821 8.47603 1.72819L9.64583 4.54152C10.0463 5.50457 9.87934 6.61027 9.21246 7.41219L7.96008 8.91817C8.76819 10.1458 9.78609 11.2527 10.9454 12.169L12.5826 10.8019C13.3859 10.1311 14.4957 9.96319 15.4615 10.3664L18.2637 11.5364C19.308 11.9725 19.988 12.9933 19.988 14.125C19.988 14.5154 19.991 14.906 19.9939 15.3009L19.9939 15.3025C19.9969 15.6956 19.9999 16.093 19.9999 16.4913C19.9999 18.387 18.4997 20.1699 16.3974 19.9904C7.8576 19.2613 0.739932 12.1628 0.0117945 3.6023ZM3.51149 2C2.56794 2 1.94275 2.70566 2.0046 3.43279C2.65004 11.0211 8.99644 17.3513 16.5675 17.9977C17.2943 18.0597 17.9999 17.4349 17.9999 16.4913C17.9999 16.1013 17.997 15.7109 17.994 15.316L17.994 15.3135C17.991 14.9206 17.988 14.5234 17.988 14.125C17.988 13.8002 17.7928 13.5072 17.4931 13.382L14.6909 12.212C14.4137 12.0963 14.0951 12.1444 13.8645 12.337L11.0325 14.7019L10.405 14.2603C8.57061 12.9694 6.99858 11.2704 5.86729 9.33836L5.51284 8.73302L7.67471 6.13339C7.86613 5.90321 7.91405 5.58583 7.79911 5.30939L6.62931 2.49606C6.50443 2.19571 6.21109 2 5.88582 2H3.51149Z" fill="url(#paint0_linear_1_11243)"/>
<defs>
<linearGradient id="paint0_linear_1_11243" x1="17.108" y1="13.0439" x2="3.41864" y2="5.86023" gradientUnits="userSpaceOnUse">
<stop stop-color="#9BCCEB"/>
<stop offset="1" stop-color="#FDC5FD"/>
</linearGradient>
</defs>
</svg>
