<svg width="32" height="32" viewBox="0 0 32 32" fill="none" xmlns="http://www.w3.org/2000/svg">
  <rect width="32" height="32" rx="7" fill="url(#paint0_linear_1_10940)" />
  <path
    d="M23.9424 20.3287L20.9731 19.9901C20.624 19.9492 20.2701 19.9878 19.938 20.1031C19.6059 20.2183 19.3044 20.4073 19.0559 20.6557L16.9049 22.804C13.5863 21.1183 10.8889 18.4242 9.20107 15.1096L11.3638 12.9495C11.8664 12.4475 12.1119 11.7469 12.0301 11.0347L11.6911 8.09235C11.6248 7.52277 11.3511 6.99743 10.9221 6.61634C10.4932 6.23525 9.93885 6.02503 9.36474 6.02571H7.34233C6.02134 6.02571 4.92246 7.12325 5.00429 8.44263C5.62387 18.4139 13.6083 26.3769 23.58 26.9957C24.901 27.0774 25.9999 25.9799 25.9999 24.6605V22.6406C26.0116 21.4613 25.1231 20.4689 23.9424 20.3287ZM16.6594 15.3548H21.3355C21.9785 15.3548 22.5045 14.8294 22.5045 14.1872C22.5045 13.545 21.9785 13.0196 21.3355 13.0196H19.4768L24.5152 7.98727C24.6235 7.87917 24.7093 7.75084 24.7679 7.6096C24.8265 7.46837 24.8566 7.31699 24.8566 7.16412C24.8566 7.01124 24.8265 6.85987 24.7679 6.71863C24.7093 6.57739 24.6235 6.44906 24.5152 6.34096C24.407 6.23286 24.2785 6.14712 24.1371 6.08861C23.9957 6.03011 23.8441 6 23.6911 6C23.538 6 23.3865 6.03011 23.245 6.08861C23.1036 6.14712 22.9751 6.23286 22.8669 6.34096L17.8284 11.3733V9.51682C17.8284 8.87464 17.3024 8.34922 16.6594 8.34922C16.0165 8.34922 15.4904 8.87464 15.4904 9.51682V14.1872C15.4904 14.8294 16.0165 15.3548 16.6594 15.3548Z"
    fill="#3D3D3D" />
  <defs>
    <linearGradient id="paint0_linear_1_10940" x1="27.3731" y1="20.8671" x2="5.47182" y2="9.3728"
      gradientUnits="userSpaceOnUse">
      <stop stop-color="#9BCCEB" />
      <stop offset="1" stop-color="#FDC5FD" />
    </linearGradient>
  </defs>
</svg>