<svg width="24" height="24" viewBox="0 0 24 24" fill="none" xmlns="http://www.w3.org/2000/svg">
<path d="M22.5375 18.5626L18.675 14.7001C18.15 14.1751 17.4375 13.8751 16.6875 13.8751C16.2375 13.8751 15.7875 13.9876 15.4125 14.1751L13.4625 12.2251C15.675 9.41259 15.4875 5.3251 12.9 2.7001C10.125 -0.037405 5.55002 -0.0374048 2.77502 2.7751C-0.0374756 5.5876 -0.0374756 10.1251 2.77502 12.9376C4.16252 14.2876 6.00002 15.0001 7.83752 15.0001C9.41252 15.0001 10.9875 14.4751 12.2625 13.4626L14.2125 15.4126C14.025 15.7876 13.9125 16.2376 13.9125 16.6876C13.9125 17.4376 14.2125 18.1501 14.7375 18.6751L18.6 22.5376C19.1625 23.1001 19.875 23.3626 20.5875 23.3626C21.3 23.3626 22.0125 23.1001 22.575 22.5376C23.625 21.4501 23.625 19.6501 22.5375 18.5626ZM3.93752 11.7001C1.80002 9.5626 1.80002 6.0751 3.93752 3.9376C5.02502 2.8501 6.41252 2.3251 7.80002 2.3251C9.18752 2.3251 10.6125 2.8501 11.7 3.9376C13.8375 6.0751 13.8375 9.5626 11.7 11.7001C9.56252 13.8376 6.07502 13.8376 3.93752 11.7001ZM21.3375 21.3376C20.925 21.7501 20.2125 21.7876 19.7625 21.3376L15.9 17.4751C15.675 17.2501 15.5625 16.9876 15.5625 16.6876C15.5625 16.3876 15.675 16.1251 15.9 15.9001C16.125 15.6751 16.3875 15.5626 16.6875 15.5626C16.9875 15.5626 17.25 15.6751 17.475 15.9001L21.3375 19.7626C21.75 20.2126 21.75 20.8876 21.3375 21.3376Z" fill="#D1D0EC"/>
</svg>
