<svg width="33" height="32" viewBox="0 0 33 32" fill="none" xmlns="http://www.w3.org/2000/svg">
<g clip-path="url(#clip0_1_11390)">
<path fill-rule="evenodd" clip-rule="evenodd" d="M1.37195 4.36808C0.5 6.07937 0.5 8.31958 0.5 12.8V19.2C0.5 23.6804 0.5 25.9206 1.37195 27.6319C2.13893 29.1372 3.36278 30.3611 4.86808 31.1281C6.57937 32 8.81958 32 13.3 32H19.7C24.1804 32 26.4206 32 28.1319 31.1281C29.6372 30.3611 30.8611 29.1372 31.6281 27.6319C32.5 25.9206 32.5 23.6804 32.5 19.2V12.8C32.5 8.31958 32.5 6.07937 31.6281 4.36808C30.8611 2.86278 29.6372 1.63893 28.1319 0.871948C26.4206 0 24.1804 0 19.7 0H13.3C8.81958 0 6.57937 0 4.86808 0.871948C3.36278 1.63893 2.13893 2.86278 1.37195 4.36808ZM18.0891 10.0097C16.1785 10.8044 12.3598 12.4493 6.63322 14.9443C5.70331 15.3141 5.21618 15.6758 5.17184 16.0296C5.09689 16.6274 5.84553 16.8628 6.86499 17.1833C7.00366 17.2269 7.14734 17.2721 7.29464 17.32C8.29763 17.646 9.64682 18.0275 10.3482 18.0426C10.9844 18.0564 11.6945 17.7941 12.4785 17.2557C17.8291 13.644 20.5911 11.8184 20.7645 11.779C20.8868 11.7513 21.0563 11.7164 21.1712 11.8185C21.286 11.9205 21.2747 12.1139 21.2626 12.1658C21.1884 12.4819 18.2497 15.214 16.7289 16.6278C16.2548 17.0686 15.9186 17.3812 15.8498 17.4526C15.6958 17.6126 15.5389 17.7639 15.388 17.9093C14.4562 18.8076 13.7575 19.4812 15.4267 20.5812C16.2289 21.1098 16.8708 21.547 17.5112 21.9831C18.2105 22.4593 18.9081 22.9343 19.8106 23.526C20.0405 23.6767 20.2601 23.8332 20.474 23.9857C21.2879 24.5659 22.0191 25.0872 22.9225 25.0041C23.4474 24.9558 23.9896 24.4622 24.2649 22.9901C24.9157 19.5112 26.1949 11.9733 26.4905 8.86716C26.5164 8.59502 26.4838 8.24673 26.4577 8.09384C26.4315 7.94095 26.3768 7.72312 26.1781 7.56186C25.9427 7.37088 25.5794 7.33061 25.4169 7.33347C24.678 7.34649 23.5445 7.74065 18.0891 10.0097Z" fill="#D1D0EC"/>
</g>
<defs>
<clipPath id="clip0_1_11390">
<rect width="32" height="32" fill="white" transform="translate(0.5)"/>
</clipPath>
</defs>
</svg>
