<svg width="32" height="32" viewBox="0 0 32 32" fill="none" xmlns="http://www.w3.org/2000/svg">
<g clip-path="url(#clip0_1_16595)">
<path fill-rule="evenodd" clip-rule="evenodd" d="M0.871948 4.36808C0 6.07937 0 8.31958 0 12.8V19.2C0 23.6804 0 25.9206 0.871948 27.6319C1.63893 29.1372 2.86278 30.3611 4.36808 31.1281C6.07937 32 8.31958 32 12.8 32H19.2C23.6804 32 25.9206 32 27.6319 31.1281C29.1372 30.3611 30.3611 29.1372 31.1281 27.6319C32 25.9206 32 23.6804 32 19.2V12.8C32 8.31958 32 6.07937 31.1281 4.36808C30.3611 2.86278 29.1372 1.63893 27.6319 0.871948C25.9206 0 23.6804 0 19.2 0H12.8C8.31958 0 6.07937 0 4.36808 0.871948C2.86278 1.63893 1.63893 2.86278 0.871948 4.36808ZM17.5891 10.0097C15.6785 10.8044 11.8598 12.4493 6.13322 14.9443C5.20331 15.3141 4.71618 15.6758 4.67184 16.0296C4.59689 16.6274 5.34553 16.8628 6.36499 17.1833C6.50366 17.2269 6.64734 17.2721 6.79464 17.32C7.79763 17.646 9.14682 18.0275 9.84821 18.0426C10.4844 18.0564 11.1945 17.7941 11.9785 17.2557C17.3291 13.644 20.0911 11.8184 20.2645 11.779C20.3868 11.7513 20.5563 11.7164 20.6712 11.8185C20.786 11.9205 20.7747 12.1139 20.7626 12.1658C20.6884 12.4819 17.7497 15.214 16.2289 16.6278C15.7548 17.0686 15.4186 17.3812 15.3498 17.4526C15.1958 17.6126 15.0389 17.7639 14.888 17.9093C13.9562 18.8076 13.2575 19.4812 14.9267 20.5812C15.7289 21.1098 16.3708 21.547 17.0112 21.9831C17.7105 22.4593 18.4081 22.9343 19.3106 23.526C19.5405 23.6767 19.7601 23.8332 19.974 23.9857C20.7879 24.5659 21.5191 25.0872 22.4225 25.0041C22.9474 24.9558 23.4896 24.4622 23.7649 22.9901C24.4157 19.5112 25.6949 11.9733 25.9905 8.86716C26.0164 8.59502 25.9838 8.24673 25.9577 8.09384C25.9315 7.94095 25.8768 7.72312 25.6781 7.56186C25.4427 7.37088 25.0794 7.33061 24.9169 7.33347C24.178 7.34649 23.0445 7.74065 17.5891 10.0097Z" fill="url(#paint0_linear_1_16595)"/>
</g>
<defs>
<linearGradient id="paint0_linear_1_16595" x1="27.3731" y1="20.8671" x2="5.47182" y2="9.3728" gradientUnits="userSpaceOnUse">
<stop stop-color="#9BCCEB"/>
<stop offset="1" stop-color="#FDC5FD"/>
</linearGradient>
<clipPath id="clip0_1_16595">
<rect width="32" height="32" fill="white"/>
</clipPath>
</defs>
</svg>
