<svg width="33" height="32" viewBox="0 0 33 32" fill="none" xmlns="http://www.w3.org/2000/svg">
<g clip-path="url(#clip0_1_10370)">
<path d="M21.1154 10.7863L17.3518 14.5499L13.6352 10.8334C13.0707 10.2688 12.1297 10.2688 11.5182 10.8804C10.9536 11.445 10.9536 12.3859 11.5652 12.9974L15.2818 16.714L11.5652 20.4306C11.0007 20.9952 11.0007 21.9361 11.6122 22.5477C12.1768 23.1122 13.1177 23.1122 13.7293 22.5006L17.4459 18.784L21.1625 22.5006C21.727 23.0652 22.6679 23.0652 23.2795 22.4536C23.8441 21.889 23.8441 20.9481 23.2325 20.3365L19.5159 16.6199L23.2325 12.9034C23.797 12.3388 23.797 11.3979 23.1854 10.7863C22.6209 10.2218 21.68 10.2218 21.1154 10.7863Z" fill="#D1D0EC"/>
</g>
<rect x="1.23157" y="0.5" width="31" height="31" rx="15.5" stroke="#D1D0EC"/>
<defs>
<clipPath id="clip0_1_10370">
<rect x="0.731567" width="32" height="32" rx="16" fill="white"/>
</clipPath>
</defs>
</svg>
