<svg width="14" height="14" viewBox="0 0 14 14" fill="none" xmlns="http://www.w3.org/2000/svg">
  <path
    d="M0.373968 6.26C0.742523 2.926 3.56801 0.333252 6.99998 0.333252C8.49098 0.333252 9.69347 0.923221 10.7207 1.68812C11.285 2.10836 11.8234 2.60471 12.3333 3.09576V0.999919C12.3333 0.631728 12.6318 0.333252 13 0.333252C13.3682 0.333252 13.6667 0.631728 13.6667 0.999919V4.66659C13.6667 4.76678 13.6446 4.86182 13.605 4.94708C13.5857 4.98851 13.562 5.02842 13.5338 5.06608C13.5119 5.0953 13.4876 5.12267 13.4613 5.1479C13.4048 5.20217 13.3408 5.2446 13.2727 5.27509C13.1895 5.31246 13.0972 5.33325 13 5.33325H9.33333C8.96514 5.33325 8.66667 5.03478 8.66667 4.66659C8.66667 4.2984 8.96514 3.99992 9.33333 3.99992H11.3495C10.8854 3.55311 10.4247 3.13017 9.92431 2.75752C9.03601 2.09604 8.10801 1.66659 6.99998 1.66659C4.25521 1.66659 1.99393 3.74057 1.69923 6.4065C1.65877 6.77246 1.32931 7.03634 0.963349 6.99588C0.597388 6.95543 0.333513 6.62596 0.373968 6.26Z"
    fill="white" />
  <path
    d="M13.6626 7.73983C13.294 11.0738 10.4685 13.6666 7.03656 13.6666C5.54556 13.6666 4.34307 13.0766 3.31589 12.3117C2.75154 11.8915 2.21313 11.3951 1.70321 10.9041V12.9999C1.70321 13.3681 1.40473 13.6666 1.03654 13.6666C0.66835 13.6666 0.369873 13.3681 0.369873 12.9999V9.33325C0.369873 9.23305 0.391978 9.13802 0.431576 9.05276C0.450794 9.01133 0.474519 8.97142 0.502776 8.93376C0.524684 8.90453 0.548935 8.87717 0.575253 8.85194C0.631779 8.79767 0.695707 8.75523 0.763808 8.72474C0.84706 8.68737 0.939372 8.66658 1.03654 8.66658H4.70321C5.0714 8.66658 5.36987 8.96506 5.36987 9.33325C5.36987 9.70144 5.0714 9.99992 4.70321 9.99992H2.68701C3.15116 10.4467 3.61179 10.8697 4.11223 11.2423C5.00053 11.9038 5.92853 12.3332 7.03656 12.3332C9.78133 12.3332 12.0426 10.2593 12.3373 7.59333C12.3778 7.22737 12.7072 6.9635 13.0732 7.00395C13.4392 7.04441 13.703 7.37387 13.6626 7.73983Z"
    fill="white" />
</svg>