<svg width="32" height="32" viewBox="0 0 32 32" fill="none" xmlns="http://www.w3.org/2000/svg">
<path d="M16 0C8.26182 0 0 1.06226 0 13.8239C0 20.5758 2.38545 24.7375 7.27273 26.5128V29.7869C7.27542 30.2385 7.4153 30.6785 7.67382 31.0487C7.93233 31.4189 8.29725 31.7017 8.72014 31.8595C9.14304 32.0174 9.60393 32.0429 10.0416 31.9326C10.4794 31.8223 10.8732 31.5815 11.1709 31.2421L14.3564 27.6478H16C23.7382 27.6478 32 26.5856 32 13.8239C32 1.06226 23.7382 0 16 0ZM16 10.186C16.7715 10.186 17.5115 10.4927 18.057 11.0385C18.6026 11.5842 18.9091 12.3245 18.9091 13.0963C18.9091 13.2893 18.8325 13.4744 18.6961 13.6108C18.5597 13.7473 18.3747 13.8239 18.1818 13.8239C17.9889 13.8239 17.804 13.7473 17.6676 13.6108C17.5312 13.4744 17.4545 13.2893 17.4545 13.0963C17.4545 12.7104 17.3013 12.3403 17.0285 12.0674C16.7557 11.7945 16.3858 11.6412 16 11.6412C15.8071 11.6412 15.6221 11.5645 15.4857 11.4281C15.3494 11.2916 15.2727 11.1066 15.2727 10.9136C15.2727 10.7207 15.3494 10.5356 15.4857 10.3991C15.6221 10.2627 15.8071 10.186 16 10.186ZM15.2727 8.00332C15.2727 7.81036 15.3494 7.62529 15.4857 7.48885C15.6221 7.3524 15.8071 7.27575 16 7.27575C17.5431 7.27575 19.023 7.88899 20.1141 8.98056C21.2052 10.0721 21.8182 11.5526 21.8182 13.0963C21.8182 13.2893 21.7416 13.4744 21.6052 13.6108C21.4688 13.7473 21.2838 13.8239 21.0909 13.8239C20.898 13.8239 20.713 13.7473 20.5767 13.6108C20.4403 13.4744 20.3636 13.2893 20.3636 13.0963C20.3636 11.9386 19.9039 10.8282 19.0856 10.0095C18.2672 9.19083 17.1573 8.7309 16 8.7309C15.8071 8.7309 15.6221 8.65424 15.4857 8.51779C15.3494 8.38135 15.2727 8.19629 15.2727 8.00332ZM23.2727 19.6445C23.0992 20.6722 22.5639 21.6038 21.7636 22.271C20.9633 22.9382 19.9508 23.2969 18.9091 23.2824C16.6255 23.2824 12.2327 20.5467 10.4 18.6987C8.56727 16.8506 5.81818 12.4706 5.81818 10.186C5.80363 9.14394 6.16223 8.13101 6.82915 7.33037C7.49608 6.52972 8.42733 5.9942 9.45455 5.8206H10.9091C11.0454 5.82032 11.179 5.85838 11.2948 5.93042C11.4105 6.00246 11.5037 6.10559 11.5636 6.22804C11.5636 6.22804 12.4364 8.00332 13.0182 9.13834C13.6 10.2734 12.4509 11.8886 11.7527 12.587C12.169 13.6703 12.797 14.6597 13.6 15.4973C14.4373 16.3007 15.4263 16.9289 16.5091 17.3454C17.1939 16.5575 18.1382 16.0412 19.1709 15.8902C19.4393 15.8905 19.7037 15.9554 19.9418 16.0794L22.8509 17.5345C22.9733 17.5945 23.0764 17.6878 23.1484 17.8035C23.2204 17.9193 23.2585 18.053 23.2582 18.1894L23.2727 19.6445ZM24 13.8239C23.8071 13.8239 23.6221 13.7473 23.4857 13.6108C23.3494 13.4744 23.2727 13.2893 23.2727 13.0963C23.2727 11.1667 22.5065 9.31608 21.1426 7.95161C19.7787 6.58715 17.9288 5.8206 16 5.8206C15.8071 5.8206 15.6221 5.74394 15.4857 5.60749C15.3494 5.47105 15.2727 5.28599 15.2727 5.09302C15.2727 4.90006 15.3494 4.715 15.4857 4.57855C15.6221 4.4421 15.8071 4.36545 16 4.36545C18.3146 4.36545 20.5344 5.28531 22.1711 6.92267C23.8078 8.56003 24.7273 10.7808 24.7273 13.0963C24.7273 13.2893 24.6507 13.4744 24.5143 13.6108C24.3779 13.7473 24.1929 13.8239 24 13.8239Z" fill="url(#paint0_linear_1_10899)"/>
<defs>
<linearGradient id="paint0_linear_1_10899" x1="27.3731" y1="20.8671" x2="5.47182" y2="9.3728" gradientUnits="userSpaceOnUse">
<stop stop-color="#9BCCEB"/>
<stop offset="1" stop-color="#FDC5FD"/>
</linearGradient>
</defs>
</svg>
