<svg width="33" height="32" viewBox="0 0 33 32" fill="none" xmlns="http://www.w3.org/2000/svg">
<path d="M16.5 0C8.76182 0 0.5 1.06226 0.5 13.8239C0.5 20.5758 2.88545 24.7375 7.77273 26.5128V29.7869C7.77542 30.2385 7.9153 30.6785 8.17382 31.0487C8.43233 31.4189 8.79725 31.7017 9.22014 31.8595C9.64304 32.0174 10.1039 32.0429 10.5416 31.9326C10.9794 31.8223 11.3732 31.5815 11.6709 31.2421L14.8564 27.6478H16.5C24.2382 27.6478 32.5 26.5856 32.5 13.8239C32.5 1.06226 24.2382 0 16.5 0ZM16.5 10.186C17.2715 10.186 18.0115 10.4927 18.557 11.0385C19.1026 11.5842 19.4091 12.3245 19.4091 13.0963C19.4091 13.2893 19.3325 13.4744 19.1961 13.6108C19.0597 13.7473 18.8747 13.8239 18.6818 13.8239C18.4889 13.8239 18.3039 13.7473 18.1676 13.6108C18.0312 13.4744 17.9545 13.2893 17.9545 13.0963C17.9545 12.7104 17.8013 12.3403 17.5285 12.0674C17.2557 11.7945 16.8858 11.6412 16.5 11.6412C16.3071 11.6412 16.1221 11.5645 15.9857 11.4281C15.8494 11.2916 15.7727 11.1066 15.7727 10.9136C15.7727 10.7207 15.8494 10.5356 15.9857 10.3991C16.1221 10.2627 16.3071 10.186 16.5 10.186ZM15.7727 8.00332C15.7727 7.81036 15.8494 7.62529 15.9857 7.48885C16.1221 7.3524 16.3071 7.27575 16.5 7.27575C18.0431 7.27575 19.523 7.88899 20.6141 8.98056C21.7052 10.0721 22.3182 11.5526 22.3182 13.0963C22.3182 13.2893 22.2416 13.4744 22.1052 13.6108C21.9688 13.7473 21.7838 13.8239 21.5909 13.8239C21.398 13.8239 21.213 13.7473 21.0767 13.6108C20.9403 13.4744 20.8636 13.2893 20.8636 13.0963C20.8636 11.9386 20.4039 10.8282 19.5856 10.0095C18.7672 9.19083 17.6573 8.7309 16.5 8.7309C16.3071 8.7309 16.1221 8.65424 15.9857 8.51779C15.8494 8.38135 15.7727 8.19629 15.7727 8.00332ZM23.7727 19.6445C23.5992 20.6722 23.0639 21.6038 22.2636 22.271C21.4633 22.9382 20.4508 23.2969 19.4091 23.2824C17.1255 23.2824 12.7327 20.5467 10.9 18.6987C9.06727 16.8506 6.31818 12.4706 6.31818 10.186C6.30363 9.14394 6.66223 8.13101 7.32915 7.33037C7.99608 6.52972 8.92733 5.9942 9.95455 5.8206H11.4091C11.5454 5.82032 11.679 5.85838 11.7948 5.93042C11.9105 6.00246 12.0037 6.10559 12.0636 6.22804C12.0636 6.22804 12.9364 8.00332 13.5182 9.13834C14.1 10.2734 12.9509 11.8886 12.2527 12.587C12.669 13.6703 13.297 14.6597 14.1 15.4973C14.9373 16.3007 15.9263 16.9289 17.0091 17.3454C17.6939 16.5575 18.6382 16.0412 19.6709 15.8902C19.9393 15.8905 20.2037 15.9554 20.4418 16.0794L23.3509 17.5345C23.4733 17.5945 23.5764 17.6878 23.6484 17.8035C23.7204 17.9193 23.7585 18.053 23.7582 18.1894L23.7727 19.6445ZM24.5 13.8239C24.3071 13.8239 24.1221 13.7473 23.9857 13.6108C23.8494 13.4744 23.7727 13.2893 23.7727 13.0963C23.7727 11.1667 23.0065 9.31608 21.6426 7.95161C20.2787 6.58715 18.4288 5.8206 16.5 5.8206C16.3071 5.8206 16.1221 5.74394 15.9857 5.60749C15.8494 5.47105 15.7727 5.28599 15.7727 5.09302C15.7727 4.90006 15.8494 4.715 15.9857 4.57855C16.1221 4.4421 16.3071 4.36545 16.5 4.36545C18.8146 4.36545 21.0344 5.28531 22.6711 6.92267C24.3078 8.56003 25.2273 10.7808 25.2273 13.0963C25.2273 13.2893 25.1507 13.4744 25.0143 13.6108C24.8779 13.7473 24.6929 13.8239 24.5 13.8239Z" fill="#D1D0EC"/>
</svg>
