<svg width="56" height="32" viewBox="0 0 56 32" fill="none" xmlns="http://www.w3.org/2000/svg">
<rect width="56" height="32" rx="6" fill="#00579F"/>
<rect x="0.5" y="0.5" width="55" height="31" rx="5.5" stroke="black" stroke-opacity="0.14"/>
<path d="M34.4821 9C35.7982 9 36.8626 9.30277 37.5337 9.57698L37.0709 12.5034L36.7632 12.3595C36.1476 12.0855 35.3349 11.8117 34.2288 11.8406C32.8856 11.8406 32.2831 12.4314 32.2692 13.0082C32.2692 13.6426 32.9979 14.0608 34.1879 14.6809C36.1481 15.6468 37.0574 16.829 37.0438 18.3717C37.0162 21.1832 34.6921 23 31.1222 23C29.5958 22.9854 28.1256 22.6532 27.3277 22.2787L27.8038 19.2365L28.2518 19.4531C29.3579 19.9582 30.0857 20.1739 31.444 20.1739C32.4236 20.1739 33.4738 19.7554 33.4872 18.8475C33.4872 18.2564 33.0398 17.8235 31.7235 17.1603C30.4356 16.5113 28.7138 15.4301 28.7417 13.4836C28.7562 10.8453 31.1222 9 34.4821 9Z" fill="white"/>
<path d="M21.7977 22.798H25.2L27.3279 9.24567H23.9258L21.7977 22.798Z" fill="white"/>
<path fill-rule="evenodd" clip-rule="evenodd" d="M46.2552 9.24567H43.6236C42.812 9.24567 42.1955 9.49056 41.8453 10.3701L36.7916 22.7978H40.3616C40.3616 22.7978 40.9493 21.1252 41.0756 20.7649H45.4439C45.5416 21.2407 45.8498 22.7978 45.8498 22.7978H49L46.2552 9.24567ZM42.0555 17.9969C42.3357 17.2183 43.4139 14.2051 43.4139 14.2051C43.4082 14.2168 43.4527 14.0896 43.5189 13.9007C43.6165 13.6219 43.7614 13.2083 43.8615 12.9076L44.0993 14.0753C44.0993 14.0753 44.7436 17.3193 44.8835 17.9969H42.0555Z" fill="white"/>
<path d="M15.624 18.4871L18.9559 9.24567H22.5536L17.2058 22.7837H13.6079L10.556 10.9321C12.7119 12.1005 14.6439 14.4502 15.2599 16.6128L15.624 18.4871Z" fill="white"/>
<path d="M12.53 9.24561H7.056L7 9.51944C11.27 10.6441 14.098 13.355 15.2599 16.6133L14.0699 10.3848C13.874 9.51924 13.2719 9.27416 12.53 9.24561Z" fill="#FAA61A"/>
</svg>
