<svg width="33" height="32" viewBox="0 0 33 32" fill="none" xmlns="http://www.w3.org/2000/svg">
<g clip-path="url(#clip0_1_11399)">
<path fill-rule="evenodd" clip-rule="evenodd" d="M16.8428 25.2044H16.8466C22.0722 25.2044 26.3252 20.9527 26.3274 15.7266C26.3283 13.1942 25.3431 10.8129 23.5531 9.02144C21.7631 7.23 19.3827 6.24281 16.8504 6.24181C11.6208 6.24181 7.3677 10.4933 7.36564 15.719C7.36495 17.5098 7.86614 19.2539 8.81514 20.763L9.04064 21.1215L8.08283 24.6189L11.6711 23.6779L12.0173 23.8834C13.473 24.7469 15.1415 25.2038 16.8428 25.2044ZM20.0995 17.1791C20.3608 17.2742 21.762 17.9635 22.047 18.1061C22.1026 18.1339 22.1545 18.159 22.2027 18.1823C22.4016 18.2784 22.536 18.3432 22.5933 18.4389C22.6645 18.5578 22.6645 19.1282 22.4271 19.7938C22.1895 20.4593 21.0508 21.0668 20.5033 21.1486C20.0122 21.222 19.3908 21.2526 18.7081 21.0357C18.2941 20.9044 17.7633 20.7291 17.0833 20.4356C14.412 19.2825 12.6066 16.6945 12.2646 16.2044C12.2406 16.1699 12.2238 16.1458 12.2144 16.1333L12.2119 16.13C12.0606 15.9281 11.0506 14.5805 11.0506 13.1859C11.0506 11.8733 11.6956 11.1854 11.9924 10.8688C12.0127 10.8471 12.0314 10.8272 12.0481 10.8089C12.3095 10.5237 12.6181 10.4524 12.8082 10.4524C12.9982 10.4524 13.1884 10.4541 13.3545 10.4624C13.3749 10.4634 13.3962 10.4633 13.4182 10.4631C13.5843 10.4622 13.7915 10.4609 13.9957 10.9515C14.0742 11.14 14.1889 11.4193 14.31 11.714C14.5554 12.3112 14.8267 12.9715 14.8745 13.067C14.9457 13.2096 14.9932 13.3761 14.8982 13.5662C14.884 13.5946 14.8709 13.6214 14.8583 13.6471C14.7869 13.7929 14.7344 13.9001 14.6132 14.0416C14.5657 14.097 14.5166 14.1568 14.4675 14.2166C14.3693 14.3361 14.2712 14.4557 14.1857 14.5407C14.043 14.6828 13.8945 14.8369 14.0607 15.1222C14.227 15.4074 14.799 16.3406 15.6463 17.096C16.5572 17.9083 17.3489 18.2516 17.7501 18.4255C17.8284 18.4594 17.8917 18.4869 17.9383 18.5102C18.2233 18.6529 18.3895 18.6291 18.5558 18.4389C18.722 18.2488 19.2682 17.607 19.4583 17.3218C19.6483 17.0365 19.8382 17.0841 20.0995 17.1791Z" fill="#D1D0EC"/>
<path fill-rule="evenodd" clip-rule="evenodd" d="M1.37195 4.36808C0.5 6.07937 0.5 8.31958 0.5 12.8V19.2C0.5 23.6804 0.5 25.9206 1.37195 27.6319C2.13893 29.1372 3.36278 30.3611 4.86808 31.1281C6.57937 32 8.81958 32 13.3 32H19.7C24.1804 32 26.4206 32 28.1319 31.1281C29.6372 30.3611 30.8611 29.1372 31.6281 27.6319C32.5 25.9206 32.5 23.6804 32.5 19.2V12.8C32.5 8.31958 32.5 6.07937 31.6281 4.36808C30.8611 2.86278 29.6372 1.63893 28.1319 0.871948C26.4206 0 24.1804 0 19.7 0H13.3C8.81958 0 6.57937 0 4.86808 0.871948C3.36278 1.63893 2.13893 2.86278 1.37195 4.36808ZM16.8465 4.31594C19.8979 4.31719 22.7619 5.50475 24.9155 7.66013C27.0691 9.8155 28.2545 12.6804 28.2533 15.7274C28.2507 22.0146 23.1333 27.1304 16.8466 27.1304H16.842C14.9328 27.1296 13.057 26.6509 11.391 25.7424L5.34408 27.3281L6.96233 21.419C5.96414 19.6899 5.43895 17.728 5.43976 15.7183C5.44226 9.431 10.5593 4.31594 16.8465 4.31594Z" fill="#D1D0EC"/>
</g>
<defs>
<clipPath id="clip0_1_11399">
<rect width="32" height="32" fill="white" transform="translate(0.5)"/>
</clipPath>
</defs>
</svg>
